<?xml version="1.0" encoding="UTF-8"?>
<svg width="136px" height="56px" viewBox="0 0 136 56" version="1.1" xmlns="http://www.w3.org/2000/svg" xmlns:xlink="http://www.w3.org/1999/xlink">
    <!-- Generator: Sketch 47.1 (45422) - http://www.bohemiancoding.com/sketch -->
    <title>zhenyiqian_logo_s</title>
    <desc>Created with Sketch.</desc>
    <defs>
        <filter x="-14.7%" y="-36.1%" width="129.3%" height="194.4%" filterUnits="objectBoundingBox" id="filter-1">
            <feOffset dx="0" dy="4" in="SourceAlpha" result="shadowOffsetOuter1"></feOffset>
            <feGaussianBlur stdDeviation="5" in="shadowOffsetOuter1" result="shadowBlurOuter1"></feGaussianBlur>
            <feColorMatrix values="0 0 0 0 0.415686275   0 0 0 0 0.368627451   0 0 0 0 0.360784314  0 0 0 0.1 0" type="matrix" in="shadowBlurOuter1" result="shadowMatrixOuter1"></feColorMatrix>
            <feMerge>
                <feMergeNode in="shadowMatrixOuter1"></feMergeNode>
                <feMergeNode in="SourceGraphic"></feMergeNode>
            </feMerge>
        </filter>
    </defs>
    <g id="登录/个人中心/首页" stroke="none" stroke-width="1" fill="none" fill-rule="evenodd">
        <g id="注册-个人-手机注册" transform="translate(-388.000000, -25.000000)" fill="#FFFFFF">
            <g id="zhenyiqian_logo_s" filter="url(#filter-1)" transform="translate(398.000000, 31.000000)">
                <path d="M1.30190797,32.7218045 L114.698092,32.7218045 L114.698092,1.27819549 L1.30190797,1.27819549 L1.30190797,32.7218045 Z M0,0 L116,0 L116,34 L0,34 L0,0 Z" id="Rectangle-14" fill-rule="nonzero"></path>
                <path d="M97.2812714,12.1647933 C97.4496975,12.1232059 97.6018661,12.0146772 97.6961394,11.851391 L100.774914,6.51879699 L104.737318,6.51879699 L106.124688,11.6965308 C106.214408,12.03137 106.566222,12.2388228 106.907159,12.147469 C107.250473,12.0554783 107.45054,11.7061095 107.35933,11.3657094 L106.060604,6.51879699 L111.057493,6.51879699 C111.402246,6.51879699 111.695652,6.23266319 111.695652,5.87969925 C111.695652,5.52427451 111.409938,5.2406015 111.057493,5.2406015 L101.512881,5.2406015 L103.171753,2.36735027 C103.356006,2.04821476 103.248746,1.65001767 102.936816,1.46992481 C102.622711,1.28857638 102.224333,1.39963482 102.042155,1.71517636 L96.5665411,11.1992171 C96.507231,11.3019452 96.4781264,11.4128654 96.4763307,11.5220662 L95.6728302,10.8804889 C95.4329624,10.6889598 95.0887767,10.6889598 94.8489089,10.8804889 L77.2402133,24.9406393 C76.9609847,25.1635971 76.9190663,25.566161 77.1465859,25.839791 C77.3741054,26.113421 77.784906,26.1544989 78.0641345,25.9315412 L95.2608696,12.2003321 L106.002004,20.7768882 C101.793039,23.9829908 98.7570305,27.3559738 98.7570305,27.3559738 L94.5043972,24.2059224 L92.6524748,25.700226 L92.6521739,25.7002682 L100.010898,32.6407234 C102.045032,28.1937158 105.187985,24.3625225 107.457378,21.9389715 L112.457605,25.9315412 C112.736833,26.1544989 113.147634,26.113421 113.375153,25.839791 C113.602673,25.566161 113.560754,25.1635971 113.281526,24.9406393 L108.353788,21.0059506 C109.498592,19.8450392 110.26087,19.1887409 110.26087,19.1887409 L109.550826,18.335022 C108.699024,18.8553992 107.869585,19.4120065 107.073609,19.9837565 L97.2812714,12.1647933 Z M84.8172284,5.2406015 L86.4761007,2.36735027 C86.6603537,2.04821476 86.553094,1.65001767 86.241164,1.46992481 C85.9270593,1.28857638 85.5286804,1.39963482 85.3465024,1.71517636 L79.8708889,11.1992171 C79.6866359,11.5183526 79.7938957,11.9165497 80.1058257,12.0966425 C80.4199303,12.277991 80.8183093,12.1669325 81.0004873,11.851391 L84.0792619,6.51879699 L88.1721009,6.51879699 L89.5594705,11.6965308 C89.6491904,12.03137 90.0010047,12.2388228 90.3419417,12.147469 C90.6852556,12.0554783 90.8853224,11.7061095 90.7941125,11.3657094 L89.4953862,6.51879699 L94.4922754,6.51879699 C94.8370282,6.51879699 95.1304348,6.23266319 95.1304348,5.87969925 C95.1304348,5.52427451 94.8447211,5.2406015 94.4922754,5.2406015 L84.8172284,5.2406015 Z M74,0 L116,0 L116,34 L74,34 L74,0 Z M88.9347826,21.0902256 L101.488584,21.0902256 C101.84877,21.0902256 102.140758,20.8040918 102.140758,20.4511278 C102.140758,20.0981639 101.84877,19.8120301 101.488584,19.8120301 L88.9347826,19.8120301 C88.5745969,19.8120301 88.2826087,20.0981639 88.2826087,20.4511278 C88.2826087,20.8040918 88.5745969,21.0902256 88.9347826,21.0902256 Z M86.534577,26.8171612 L92.106078,32.3886622 C92.3721893,32.6547735 92.7805488,32.6501994 93.0352386,32.3955096 C93.291704,32.1390442 93.2868627,31.7248205 93.0283912,31.466349 L87.4568902,25.894848 C87.1907789,25.6287367 86.7824193,25.6333108 86.5277296,25.8880006 C86.2712642,26.144466 86.2761055,26.5586897 86.534577,26.8171612 Z" id="Combined-Shape"></path>
                <rect id="Rectangle-3-Copy-26" x="57" y="1" width="1" height="5" rx="0.5"></rect>
                <rect id="Rectangle-3-Copy-27" x="43" y="5" width="1" height="5" rx="0.5"></rect>
                <rect id="Rectangle-3-Copy-30" x="71" y="5" width="1" height="5" rx="0.5"></rect>
                <rect id="Rectangle-4-Copy-51" x="43" y="5" width="29" height="1" rx="0.5"></rect>
                <rect id="Rectangle-4-Copy-52" x="4" y="5" width="14" height="1" rx="0.5"></rect>
                <rect id="Rectangle-4-Copy-53" x="19" y="5" width="15" height="1" rx="0.5"></rect>
                <path d="M16.9993476,1.49769878 C16.9980053,1.22282734 17.2246176,1 17.4877914,1 L17.4877914,1 C17.7588938,1 17.9797148,1.21484375 17.9810961,1.49769878 L18.0006524,5.50230122 C18.0019947,5.77717266 17.7753824,6 17.5122086,6 L17.5122086,6 C17.2411062,6 17.0202852,5.78515625 17.0189039,5.50230122 L16.9993476,1.49769878 Z" id="Rectangle-3-Copy-42" transform="translate(17.500000, 3.500000) rotate(-330.000000) translate(-17.500000, -3.500000) "></path>
                <path d="M84.6524978,36 L106.347502,36 C106.707867,36 107,35.7761424 107,35.5 C107,35.2238576 106.707867,35 106.347502,35 L84.6524978,35 C84.2921332,35 84,35.2238576 84,35.5 C84,35.7761424 84.2921332,36 84.6524978,36 Z" id="Line" fill-rule="nonzero"></path>
                <path d="M23.6753541,36 L35.3246459,36 C35.6976337,36 36,35.7761424 36,35.5 C36,35.2238576 35.6976337,35 35.3246459,35 L23.6753541,35 C23.3023663,35 23,35.2238576 23,35.5 C23,35.7761424 23.3023663,36 23.6753541,36 Z" id="Line-Copy-13" fill-rule="nonzero"></path>
                <path d="M4.64346053,36 L15.3565395,36 C15.7119129,36 16,35.7761424 16,35.5 C16,35.2238576 15.7119129,35 15.3565395,35 L4.64346053,35 C4.28808709,35 4,35.2238576 4,35.5 C4,35.7761424 4.28808709,36 4.64346053,36 Z" id="Line-Copy-13" fill-rule="nonzero"></path>
                <path d="M22.6295594,11.3157895 L9.30952381,11.3157895 L9.30952381,33.6842105 L28.6904762,33.6842105 L28.6904762,17.5628767 L22.6295594,11.3157895 Z M30,17.0276521 L30,34.2116674 C30,34.6470515 29.6471193,35 29.2147854,35 L8.78521456,35 C8.35155253,35 8,34.6463907 8,34.2104663 L8,10.7895337 C8,10.3534863 8.35170947,10 8.78605651,10 L23.1817801,10 L30,17.0276521 Z" id="Rectangle-6-Copy-5" fill-rule="nonzero"></path>
                <rect id="Rectangle-5-Copy-14" x="11" y="17" width="6" height="1" rx="0.5"></rect>
                <rect id="Rectangle-5-Copy-18" x="11" y="27" width="16" height="1" rx="0.5"></rect>
                <rect id="Rectangle-5-Copy-24" x="11" y="22" width="16" height="1" rx="0.5"></rect>
                <path d="M23.25,11 L22,11 L22,15.9128671 C22,17.0661586 22.9511277,18 24.1244032,18 L28,18 L28,16.7719298 L24.1244032,16.7719298 C23.6412172,16.7719298 23.25,16.3876524 23.25,15.9128671 L23.25,11 Z" id="Combined-Shape"></path>
                <path d="M59.6586916,13.2941176 L50.3043478,13.2941176 L50.3043478,32.7058824 L65.6956522,32.7058824 L65.6956522,19.4383117 L59.6586916,13.2941176 Z M67,18.9119026 L67,33.2246517 C67,33.6528647 66.6485141,34 66.2178891,34 L49.7821109,34 C49.350163,34 49,33.6522149 49,33.2234704 L49,12.7765296 C49,12.3476641 49.3503193,12 49.7829496,12 L60.2087296,12 L67,18.9119026 Z" id="Rectangle-6-Copy-5" fill-rule="nonzero"></path>
                <rect id="Rectangle-5-Copy-14" x="52" y="21" width="6" height="1" rx="0.5"></rect>
                <rect id="Rectangle-5-Copy-18" x="52" y="27" width="11" height="1" rx="0.5"></rect>
                <path d="M60.25,14 L59,14 L59,17.8755968 C59,19.0494828 59.9511277,20 61.1244032,20 L65,20 L65,18.75 L61.1244032,18.75 C60.6412172,18.75 60.25,18.3588605 60.25,17.8755968 L60.25,14 Z" id="Combined-Shape"></path>
            </g>
        </g>
    </g>
</svg>