<?xml version="1.0" encoding="UTF-8"?>
<svg width="232px" height="74px" viewBox="0 0 232 74" version="1.1" xmlns="http://www.w3.org/2000/svg" xmlns:xlink="http://www.w3.org/1999/xlink">
    <!-- Generator: Sketch 47.1 (45422) - http://www.bohemiancoding.com/sketch -->
    <title>zhenyiqian_logo_s</title>
    <desc>Created with Sketch.</desc>
    <defs></defs>
    <g id="web" stroke="none" stroke-width="1" fill="none" fill-rule="evenodd">
        <g id="企业账户-企业签章" transform="translate(-317.000000, -4.000000)" fill="#FF563F">
            <g id="zhenyiqian_logo_s" transform="translate(317.000000, 4.000000)">
                <path d="M2.60089686,66.0603622 L229.139013,66.0603622 L229.139013,2.5804829 L2.60089686,2.5804829 L2.60089686,66.0603622 Z M0,0 L231.73991,0 L231.73991,68.6408451 L0,68.6408451 L0,0 Z" id="Rectangle-14" fill-rule="nonzero"></path>
                <path d="M194.655574,24.5436028 C194.966094,24.4531769 195.24355,24.2474947 195.418028,23.9452901 L195.418028,23.9452901 L201.644651,13.1604628 L209.509897,13.1604628 L212.288468,23.5302312 C212.472898,24.2185313 213.180385,24.6269991 213.868685,24.4425697 C214.556985,24.2581402 214.965453,23.5506532 214.781023,22.8623531 L212.18141,13.1604628 L222.126799,13.1604628 C222.83938,13.1604628 223.41704,12.582802 223.41704,11.8702213 L223.41704,11.8702213 C223.41704,11.1576407 222.83938,10.5799799 222.126799,10.5799799 L203.134494,10.5799799 L206.503898,4.74400092 C206.863007,4.12200603 206.649895,3.32666425 206.027901,2.96755533 C205.405906,2.60844641 204.610564,2.8215576 204.251455,3.44355249 L204.251455,3.44355249 L193.165585,22.6448417 C193.063958,22.8208656 193.008159,23.0107726 192.994486,23.2007466 L191.467198,21.9660575 C190.988897,21.5793893 190.302583,21.5793893 189.824282,21.9660575 L154.712174,50.3513693 C154.155387,50.8014873 154.0718,51.6142028 154.525479,52.1666203 C154.979158,52.7190378 155.798303,52.8019679 156.35509,52.35185 L190.64574,24.6306208 L212.063787,41.9453871 C203.671023,48.4180222 197.617158,55.2275635 197.617158,55.2275635 L189.137318,48.8680873 L185.444546,51.8848597 L185.443946,51.8849449 L200.117395,65.8966718 C204.173502,56.9188375 210.440616,49.1842393 214.965832,44.2914572 L224.936389,52.35185 C225.493177,52.8019679 226.312322,52.7190378 226.766001,52.1666203 C227.219679,51.6142028 227.136093,50.8014873 226.579306,50.3513693 L216.753293,42.4078295 C219.036056,40.0641253 220.556054,38.7391585 220.556054,38.7391585 L219.140211,37.0156294 C217.4417,38.0661921 215.787783,39.189898 214.20059,40.3441745 L194.655574,24.5436028 Z M169.843014,10.5799799 L173.212418,4.74400092 C173.571527,4.12200603 173.358416,3.32666425 172.736421,2.96755533 C172.114426,2.60844641 171.319084,2.8215576 170.959975,3.44355249 L159.874106,22.6448417 C159.514997,23.2668366 159.728108,24.0621783 160.350103,24.4212873 L160.350103,24.4212873 C160.972098,24.7803962 161.767439,24.567285 162.126548,23.9452901 L162.126548,23.9452901 L168.353171,13.1604628 L176.478507,13.1604628 L179.257078,23.5302312 C179.441508,24.2185313 180.148995,24.6269991 180.837295,24.4425697 L180.837295,24.4425697 C181.525595,24.2581402 181.934063,23.5506532 181.749633,22.8623531 L181.749633,22.8623531 L179.15002,13.1604628 L189.095409,13.1604628 C189.807989,13.1604628 190.38565,12.582802 190.38565,11.8702213 L190.38565,11.8702213 C190.38565,11.1576407 189.807989,10.5799799 189.095409,10.5799799 L189.095409,10.5799799 L169.843014,10.5799799 Z M148.251121,0 L232,0 L232,68.6408451 L148.251121,68.6408451 L148.251121,0 Z M178.03139,42.5779678 L203.063933,42.5779678 C203.782151,42.5779678 204.364382,42.000307 204.364382,41.2877264 C204.364382,40.5751457 203.782151,39.9974849 203.063933,39.9974849 L178.03139,39.9974849 C177.313172,39.9974849 176.730942,40.5751457 176.730942,41.2877264 C176.730942,42.000307 177.313172,42.5779678 178.03139,42.5779678 Z M173.150894,52.2639481 C172.643037,52.7718048 172.643037,53.5952032 173.150894,54.1030599 L184.449456,65.4016222 C184.957313,65.9094789 185.780711,65.9094789 186.288568,65.4016222 C186.796424,64.8937655 186.796424,64.0703671 186.288568,63.5625104 L174.990005,52.2639481 C174.482149,51.7560914 173.65875,51.7560914 173.150894,52.2639481 Z" id="Combined-Shape"></path>
                <rect id="Rectangle-3-Copy-26" x="113.919283" y="2.83853119" width="2.60089686" height="10.3219316" rx="1.30044843"></rect>
                <rect id="Rectangle-3-Copy-27" x="86.0896861" y="10.5799799" width="2.60089686" height="10.3219316" rx="1.30044843"></rect>
                <rect id="Rectangle-3-Copy-30" x="141.488789" y="10.5799799" width="2.60089686" height="10.3219316" rx="1.30044843"></rect>
                <rect id="Rectangle-4-Copy-51" x="86.3497758" y="10.5799799" width="57.7399103" height="2.5804829" rx="1.29024145"></rect>
                <rect id="Rectangle-4-Copy-52" x="7.5426009" y="10.3219316" width="27.309417" height="2.5804829" rx="1.29024145"></rect>
                <rect id="Rectangle-4-Copy-53" x="38.7533632" y="10.3219316" width="29.1300448" height="2.5804829" rx="1.29024145"></rect>
                <path d="M35.9950127,2.53869809 L35.9950127,2.53869809 L35.9950127,2.53869809 C36.7145312,2.53869809 37.299063,3.11961694 37.3035241,3.83912152 L37.3520855,11.6713684 L37.3520855,11.6713684 C37.356511,12.3851333 36.7814779,12.9673416 36.067713,12.971767 C36.0650421,12.9717836 36.062371,12.9717919 36.0597,12.9717919 L36.0597,12.9717919 L36.0597,12.9717919 C35.3401816,12.9717919 34.7556498,12.390873 34.7511887,11.6713684 L34.7026272,3.83912152 L34.7026272,3.83912152 C34.6982017,3.12535669 35.2732349,2.54314841 35.9869997,2.53872293 C35.9896707,2.53870637 35.9923417,2.53869809 35.9950127,2.53869809 Z" id="Rectangle-3-Copy-42" transform="translate(36.027356, 7.755245) rotate(-330.000000) translate(-36.027356, -7.755245) "></path>
                <path d="M169.70852,73.2857143 L212.947341,73.2857143 C213.665559,73.2857143 214.24779,72.7080535 214.24779,71.9954728 C214.24779,71.2828922 213.665559,70.7052314 212.947341,70.7052314 L169.70852,70.7052314 C168.990302,70.7052314 168.408072,71.2828922 168.408072,71.9954728 C168.408072,72.7080535 168.990302,73.2857143 169.70852,73.2857143 Z" id="Line" fill-rule="nonzero"></path>
                <path d="M46.9461883,73.2857143 L69.3778345,73.2857143 C70.0960524,73.2857143 70.678283,72.7080535 70.678283,71.9954728 C70.678283,71.2828922 70.0960524,70.7052314 69.3778345,70.7052314 L46.9461883,70.7052314 C46.2279705,70.7052314 45.6457399,71.2828922 45.6457399,71.9954728 C45.6457399,72.7080535 46.2279705,73.2857143 46.9461883,73.2857143 Z" id="Line-Copy-13" fill-rule="nonzero"></path>
                <path d="M8.71300448,73.2857143 L30.3643816,73.2857143 C31.0825995,73.2857143 31.6648301,72.7080535 31.6648301,71.9954728 C31.6648301,71.2828922 31.0825995,70.7052314 30.3643816,70.7052314 L8.71300448,70.7052314 C7.99478665,70.7052314 7.41255605,71.2828922 7.41255605,71.9954728 C7.41255605,72.7080535 7.99478665,73.2857143 8.71300448,73.2857143 Z" id="Line-Copy-13" fill-rule="nonzero"></path>
                <path d="M44.9218156,22.1921529 L18.4663677,22.1921529 L18.4663677,66.0603622 L56.9596413,66.0603622 L56.9596413,34.4437343 L44.9218156,22.1921529 Z M59.5605381,33.3940695 L59.5605381,67.0947932 C59.5605381,67.9486541 58.8596679,68.6408451 58.0009925,68.6408451 L17.4250164,68.6408451 C16.5637032,68.6408451 15.8654709,67.9473582 15.8654709,67.0924377 L15.8654709,21.1600774 C15.8654709,20.3049156 16.5640149,19.61167 17.4266887,19.61167 L46.0186029,19.61167 L59.5605381,33.3940695 Z" id="Rectangle-6-Copy-5" fill-rule="nonzero"></path>
                <rect id="Rectangle-5-Copy-14" x="22.367713" y="33.5462777" width="12.2242152" height="2.5804829" rx="1.29024145"></rect>
                <rect id="Rectangle-5-Copy-18" x="22.367713" y="54.7062374" width="31.2107623" height="2.5804829" rx="1.29024145"></rect>
                <rect id="Rectangle-5-Copy-24" x="22.367713" y="44.1262575" width="31.2107623" height="2.5804829" rx="1.29024145"></rect>
                <path d="M47.0762332,21.418008 L44.4753363,21.418008 L44.4753363,31.7411718 C44.4753363,34.1645259 46.4543643,36.1267606 48.8956191,36.1267606 L56.9596413,36.1267606 L56.9596413,33.5462777 L48.8956191,33.5462777 C47.8902456,33.5462777 47.0762332,32.7388146 47.0762332,31.7411718 L47.0762332,21.418008 Z" id="Combined-Shape"></path>
                <path d="M118.787286,27.3531187 L100.134529,27.3531187 L100.134529,66.0603622 L130.825112,66.0603622 L130.825112,39.6047001 L118.787286,27.3531187 Z M133.426009,38.5550353 L133.426009,67.0947932 C133.426009,67.9486541 132.725139,68.6408451 131.866463,68.6408451 L99.0931779,68.6408451 C98.2318646,68.6408451 97.5336323,67.9473582 97.5336323,67.0924377 L97.5336323,26.3210432 C97.5336323,25.4658814 98.2321763,24.7726358 99.0948501,24.7726358 L119.884074,24.7726358 L133.426009,38.5550353 Z" id="Rectangle-6-Copy-5" fill-rule="nonzero"></path>
                <rect id="Rectangle-5-Copy-14" x="104.035874" y="42.3199195" width="12.2242152" height="2.5804829" rx="1.29024145"></rect>
                <rect id="Rectangle-5-Copy-18" x="104.035874" y="54.7062374" width="22.6278027" height="2.5804829" rx="1.29024145"></rect>
                <path d="M120.941704,27.3531187 L118.340807,27.3531187 L118.340807,35.3538478 C118.340807,37.777202 120.319835,39.7394366 122.76109,39.7394366 L130.825112,39.7394366 L130.825112,37.1589537 L122.76109,37.1589537 C121.755716,37.1589537 120.941704,36.3514906 120.941704,35.3538478 L120.941704,27.3531187 Z" id="Combined-Shape"></path>
            </g>
        </g>
    </g>
</svg>