<?xml version="1.0" encoding="UTF-8"?>
<svg width="136px" height="57px" viewBox="0 0 136 57" version="1.1" xmlns="http://www.w3.org/2000/svg" xmlns:xlink="http://www.w3.org/1999/xlink">
    <!-- Generator: Sketch 47.1 (45422) - http://www.bohemiancoding.com/sketch -->
    <title>zhenyiqian_logo_s</title>
    <desc>Created with Sketch.</desc>
    <defs>
        <filter x="-14.7%" y="-35.1%" width="129.3%" height="191.9%" filterUnits="objectBoundingBox" id="filter-1">
            <feOffset dx="0" dy="4" in="SourceAlpha" result="shadowOffsetOuter1"></feOffset>
            <feGaussianBlur stdDeviation="5" in="shadowOffsetOuter1" result="shadowBlurOuter1"></feGaussianBlur>
            <feColorMatrix values="0 0 0 0 0.41499256   0 0 0 0 0.368229986   0 0 0 0 0.361865849  0 0 0 0.4 0" type="matrix" in="shadowBlurOuter1" result="shadowMatrixOuter1"></feColorMatrix>
            <feMerge>
                <feMergeNode in="shadowMatrixOuter1"></feMergeNode>
                <feMergeNode in="SourceGraphic"></feMergeNode>
            </feMerge>
        </filter>
    </defs>
    <g id="登录/个人中心/首页" stroke="none" stroke-width="1" fill="none" fill-rule="evenodd">
        <g id="真宜签首页" transform="translate(-383.000000, -24.000000)" fill="#FFFFFF">
            <g id="T" transform="translate(-4.000000, -2.000000)">
                <g id="zhenyiqian_logo_s" filter="url(#filter-1)" transform="translate(397.000000, 32.000000)">
                    <path d="M1.30044843,33.0301811 L114.569507,33.0301811 L114.569507,1.29024145 L1.30044843,1.29024145 L1.30044843,33.0301811 Z M0,0 L115.869955,0 L115.869955,34.3204225 L0,34.3204225 L0,0 Z" id="Rectangle-14" fill-rule="nonzero"></path>
                    <path d="M97.3287582,12.2725865 C97.4834044,12.2274136 97.6212291,12.1246931 97.7081534,11.9741359 L100.822326,6.58023139 L104.754949,6.58023139 L106.143385,11.7619473 C106.235999,12.1075863 106.590192,12.3134996 106.934342,12.2212848 C107.280892,12.1284272 107.482346,11.7739081 107.389663,11.4280082 L106.090705,6.58023139 L111.072269,6.58023139 C111.415991,6.58023139 111.70852,6.291401 111.70852,5.93511066 C111.70852,5.57633634 111.423661,5.28998994 111.072269,5.28998994 L101.567247,5.28998994 L103.25281,2.37050961 C103.436072,2.05308987 103.324948,1.66333213 103.01395,1.48377767 C102.700785,1.30297139 102.305667,1.41011133 102.126588,1.7202854 L96.581932,11.3239117 C96.531075,11.4119986 96.5028891,11.5056564 96.4953544,11.5988467 L95.733599,10.9830287 C95.4944483,10.7896946 95.1512916,10.7896946 94.9121409,10.9830287 L77.3560871,25.1756847 C77.0776933,25.4007436 77.0359002,25.8071014 77.2627396,26.0833101 C77.489579,26.3595189 77.8991514,26.400984 78.1775452,26.175925 L95.32287,12.3153104 L106.031893,20.9726935 C101.835512,24.2090111 98.8085789,27.6137817 98.8085789,27.6137817 L94.5686591,24.4340437 L92.7222731,25.9424299 L92.7219731,25.9424725 L100.058698,32.9483359 C102.086751,28.4594188 105.220308,24.5921196 107.482916,22.1457286 L112.468195,26.175925 C112.746589,26.400984 113.156161,26.3595189 113.383,26.0833101 C113.60984,25.8071014 113.568047,25.4007436 113.289653,25.1756847 L108.376647,21.2039147 C109.518028,20.0320626 110.278027,19.3695792 110.278027,19.3695792 L109.570106,18.5078147 C108.72085,19.0330961 107.893892,19.594949 107.100295,20.1720872 L97.3287582,12.2725865 Z M84.9215069,5.28998994 L86.6070697,2.37050961 C86.790332,2.05308987 86.6792078,1.66333213 86.3682103,1.48377767 C86.0550447,1.30297139 85.6599274,1.41011133 85.4808483,1.7202854 L79.9361921,11.3239117 C79.7529297,11.6413314 79.8640539,12.0310892 80.1750514,12.2106436 C80.4882171,12.3914499 80.8833344,12.28431 81.0624134,11.9741359 L84.1765857,6.58023139 L88.2392535,6.58023139 L89.6276901,11.7619473 C89.7203038,12.1075863 90.0744973,12.3134996 90.4186474,12.2212848 C90.7651968,12.1284272 90.9666513,11.7739081 90.8739677,11.4280082 L89.5750098,6.58023139 L94.5565735,6.58023139 C94.9002957,6.58023139 95.1928251,6.291401 95.1928251,5.93511066 C95.1928251,5.57633634 94.9079656,5.28998994 94.5565735,5.28998994 L84.9215069,5.28998994 Z M74.1255605,0 L116,0 L116,34.3204225 L74.1255605,34.3204225 L74.1255605,0 Z M89.0156951,21.2889839 L101.531967,21.2889839 C101.891076,21.2889839 102.182191,21.0001535 102.182191,20.6438632 C102.182191,20.2875728 101.891076,19.9987425 101.531967,19.9987425 L89.0156951,19.9987425 C88.6565861,19.9987425 88.3654709,20.2875728 88.3654709,20.6438632 C88.3654709,21.0001535 88.6565861,21.2889839 89.0156951,21.2889839 Z M86.5775767,27.0536599 L92.222598,32.6986812 C92.4807105,32.9567937 92.8903555,32.9547395 93.1442838,32.7008111 C93.3999825,32.4451124 93.3972586,32.03423 93.1421539,31.7791253 L87.4971326,26.134104 C87.2390201,25.8759915 86.8293751,25.8780457 86.5754468,26.1319741 C86.3197481,26.3876728 86.322472,26.7985552 86.5775767,27.0536599 Z" id="Combined-Shape"></path>
                    <rect id="Rectangle-3-Copy-26" x="56.9596413" y="1.41926559" width="1.30044843" height="5.16096579" rx="0.650224215"></rect>
                    <rect id="Rectangle-3-Copy-27" x="43.044843" y="5.28998994" width="1.30044843" height="5.16096579" rx="0.650224215"></rect>
                    <rect id="Rectangle-3-Copy-30" x="70.7443946" y="5.28998994" width="1.30044843" height="5.16096579" rx="0.650224215"></rect>
                    <rect id="Rectangle-4-Copy-51" x="43.1748879" y="5.28998994" width="28.8699552" height="1.29024145" rx="0.645120724"></rect>
                    <rect id="Rectangle-4-Copy-52" x="3.77130045" y="5.16096579" width="13.6547085" height="1.29024145" rx="0.645120724"></rect>
                    <rect id="Rectangle-4-Copy-53" x="19.3766816" y="5.16096579" width="14.5650224" height="1.29024145" rx="0.645120724"></rect>
                    <path d="M17.3513785,1.93002831 C17.3491162,1.56514523 17.6488998,1.26934904 18.0127448,1.26934904 L17.982268,1.26934904 C18.3497928,1.26934904 18.6495622,1.56475969 18.6518269,1.93002831 L18.6759779,5.82521667 C18.6782402,6.19009975 18.3784565,6.48589594 18.0146116,6.48589594 L18.0450884,6.48589594 C17.6775635,6.48589594 17.3777942,6.19048529 17.3755294,5.82521667 L17.3513785,1.93002831 Z" id="Rectangle-3-Copy-42" transform="translate(18.013678, 3.877622) rotate(-330.000000) translate(-18.013678, -3.877622) "></path>
                    <path d="M84.8542601,36.6428571 L106.473671,36.6428571 C106.83278,36.6428571 107.123895,36.3540268 107.123895,35.9977364 C107.123895,35.6414461 106.83278,35.3526157 106.473671,35.3526157 L84.8542601,35.3526157 C84.4951512,35.3526157 84.2040359,35.6414461 84.2040359,35.9977364 C84.2040359,36.3540268 84.4951512,36.6428571 84.8542601,36.6428571 Z" id="Line" fill-rule="nonzero"></path>
                    <path d="M23.4730942,36.6428571 L34.6889173,36.6428571 C35.0480262,36.6428571 35.3391415,36.3540268 35.3391415,35.9977364 C35.3391415,35.6414461 35.0480262,35.3526157 34.6889173,35.3526157 L23.4730942,35.3526157 C23.1139853,35.3526157 22.82287,35.6414461 22.82287,35.9977364 C22.82287,36.3540268 23.1139853,36.6428571 23.4730942,36.6428571 Z" id="Line-Copy-13" fill-rule="nonzero"></path>
                    <path d="M4.35650224,36.6428571 L15.1821908,36.6428571 C15.5412997,36.6428571 15.832415,36.3540268 15.832415,35.9977364 C15.832415,35.6414461 15.5412997,35.3526157 15.1821908,35.3526157 L4.35650224,35.3526157 C3.99739332,35.3526157 3.70627803,35.6414461 3.70627803,35.9977364 C3.70627803,36.3540268 3.99739332,36.6428571 4.35650224,36.6428571 Z" id="Line-Copy-13" fill-rule="nonzero"></path>
                    <path d="M22.4609078,11.0960765 L9.23318386,11.0960765 L9.23318386,33.0301811 L28.4798206,33.0301811 L28.4798206,17.2218672 L22.4609078,11.0960765 Z M29.7802691,16.6970347 L29.7802691,33.5473966 C29.7802691,33.974327 29.4298339,34.3204225 29.0004963,34.3204225 L8.71250822,34.3204225 C8.2818516,34.3204225 7.93273543,33.9736791 7.93273543,33.5462188 L7.93273543,10.5800387 C7.93273543,10.1524578 8.28200744,9.80583501 8.71334434,9.80583501 L23.0093014,9.80583501 L29.7802691,16.6970347 Z" id="Rectangle-6-Copy-5" fill-rule="nonzero"></path>
                    <rect id="Rectangle-5-Copy-14" x="11.1838565" y="16.7731388" width="6.11210762" height="1.29024145" rx="0.645120724"></rect>
                    <rect id="Rectangle-5-Copy-18" x="11.1838565" y="27.3531187" width="15.6053812" height="1.29024145" rx="0.645120724"></rect>
                    <rect id="Rectangle-5-Copy-24" x="11.1838565" y="22.0631288" width="15.6053812" height="1.29024145" rx="0.645120724"></rect>
                    <path d="M23.5381166,10.709004 L22.2376682,10.709004 L22.2376682,15.8705859 C22.2376682,17.082263 23.2271822,18.0633803 24.4478096,18.0633803 L28.4798206,18.0633803 L28.4798206,16.7731388 L24.4478096,16.7731388 C23.9451228,16.7731388 23.5381166,16.3694073 23.5381166,15.8705859 L23.5381166,10.709004 Z" id="Combined-Shape"></path>
                    <path d="M59.3936432,13.6765594 L50.0672646,13.6765594 L50.0672646,33.0301811 L65.4125561,33.0301811 L65.4125561,19.8023501 L59.3936432,13.6765594 Z M66.7130045,19.2775176 L66.7130045,33.5473966 C66.7130045,33.974327 66.3625694,34.3204225 65.9332317,34.3204225 L49.5465889,34.3204225 C49.1159323,34.3204225 48.7668161,33.9736791 48.7668161,33.5462188 L48.7668161,13.1605216 C48.7668161,12.7329407 49.1160882,12.3863179 49.5474251,12.3863179 L59.9420369,12.3863179 L66.7130045,19.2775176 Z" id="Rectangle-6-Copy-5" fill-rule="nonzero"></path>
                    <rect id="Rectangle-5-Copy-14" x="52.0179372" y="21.1599598" width="6.11210762" height="1.29024145" rx="0.645120724"></rect>
                    <rect id="Rectangle-5-Copy-18" x="52.0179372" y="27.3531187" width="11.3139013" height="1.29024145" rx="0.645120724"></rect>
                    <path d="M60.470852,13.6765594 L59.1704036,13.6765594 L59.1704036,17.6769239 C59.1704036,18.888601 60.1599176,19.8697183 61.380545,19.8697183 L65.4125561,19.8697183 L65.4125561,18.5794769 L61.380545,18.5794769 C60.8778582,18.5794769 60.470852,18.1757453 60.470852,17.6769239 L60.470852,13.6765594 Z" id="Combined-Shape"></path>
                </g>
            </g>
        </g>
    </g>
</svg>