<?xml version="1.0" encoding="UTF-8"?>
<svg width="23px" height="23px" viewBox="0 0 23 23" version="1.1" xmlns="http://www.w3.org/2000/svg" xmlns:xlink="http://www.w3.org/1999/xlink">
    <!-- Generator: Sketch 47.1 (45422) - http://www.bohemiancoding.com/sketch -->
    <title>fangda</title>
    <desc>Created with Sketch.</desc>
    <defs></defs>
    <g id="个人用户" stroke="none" stroke-width="1" fill="none" fill-rule="evenodd">
        <g id="签署-侧边隐藏-签署" transform="translate(-1036.000000, -153.000000)" fill-rule="nonzero" fill="#BFC5D1">
            <path d="M1045.5,163 L1045.5,157.5 L1046.5,157.5 L1046.5,163 L1052,163 L1052,164 L1046.5,164 L1046.5,169.5 L1045.5,169.5 L1045.5,164 L1040,164 L1040,163 L1045.5,163 Z M1053.06181,169.354708 L1058.20711,174.5 L1057.5,175.207107 L1052.35471,170.061815 C1050.67144,171.577515 1048.44345,172.5 1046,172.5 C1040.75329,172.5 1036.5,168.246705 1036.5,163 C1036.5,157.753295 1040.75329,153.5 1046,153.5 C1051.24671,153.5 1055.5,157.753295 1055.5,163 C1055.5,165.443451 1054.57751,167.671444 1053.06181,169.354708 Z M1046,171.5 C1050.69442,171.5 1054.5,167.69442 1054.5,163 C1054.5,158.30558 1050.69442,154.5 1046,154.5 C1041.30558,154.5 1037.5,158.30558 1037.5,163 C1037.5,167.69442 1041.30558,171.5 1046,171.5 Z" id="fangda"></path>
        </g>
    </g>
</svg>