<?xml version="1.0" encoding="UTF-8"?>
<svg width="23px" height="23px" viewBox="0 0 23 23" version="1.1" xmlns="http://www.w3.org/2000/svg" xmlns:xlink="http://www.w3.org/1999/xlink">
    <!-- Generator: Sketch 47.1 (45422) - http://www.bohemiancoding.com/sketch -->
    <title>suoxiao</title>
    <desc>Created with Sketch.</desc>
    <defs></defs>
    <g id="个人用户" stroke="none" stroke-width="1" fill="none" fill-rule="evenodd">
        <g id="签署-侧边隐藏-签署" transform="translate(-1074.000000, -153.000000)" fill-rule="nonzero" fill="#BFC5D1">
            <path d="M1091.06181,169.354708 L1096.20711,174.5 L1095.5,175.207107 L1090.35471,170.061815 C1088.67144,171.577515 1086.44345,172.5 1084,172.5 C1078.75329,172.5 1074.5,168.246705 1074.5,163 C1074.5,157.753295 1078.75329,153.5 1084,153.5 C1089.24671,153.5 1093.5,157.753295 1093.5,163 C1093.5,165.443451 1092.57751,167.671444 1091.06181,169.354708 Z M1084,171.5 C1088.69442,171.5 1092.5,167.69442 1092.5,163 C1092.5,158.30558 1088.69442,154.5 1084,154.5 C1079.30558,154.5 1075.5,158.30558 1075.5,163 C1075.5,167.69442 1079.30558,171.5 1084,171.5 Z M1078,164 L1078,163 L1090,163 L1090,164 L1078,164 Z" id="suoxiao"></path>
        </g>
    </g>
</svg>