<?xml version="1.0" encoding="UTF-8"?>
<svg width="22px" height="22px" viewBox="0 0 22 22" version="1.1" xmlns="http://www.w3.org/2000/svg" xmlns:xlink="http://www.w3.org/1999/xlink">
    <!-- Generator: Sketch 47.1 (45422) - http://www.bohemiancoding.com/sketch -->
    <title>xiayiye</title>
    <desc>Created with Sketch.</desc>
    <defs></defs>
    <g id="个人用户" stroke="none" stroke-width="1" fill="none" fill-rule="evenodd">
        <g id="签署-侧边隐藏-签署" transform="translate(-767.000000, -154.000000)" fill-rule="nonzero" fill="#BFC5D1">
            <path d="M778,175.5 C772.20101,175.5 767.5,170.79899 767.5,165 C767.5,159.20101 772.20101,154.5 778,154.5 C783.79899,154.5 788.5,159.20101 788.5,165 C788.5,170.79899 783.79899,175.5 778,175.5 Z M778,174.5 C783.246705,174.5 787.5,170.246705 787.5,165 C787.5,159.753295 783.246705,155.5 778,155.5 C772.753295,155.5 768.5,159.753295 768.5,165 C768.5,170.246705 772.753295,174.5 778,174.5 Z M782.663664,163.454303 C782.867992,163.26855 783.184217,163.283608 783.36997,163.487937 C783.555723,163.692266 783.540665,164.00849 783.336336,164.194243 L778,169.045458 L772.663664,164.194243 C772.459335,164.00849 772.444277,163.692266 772.63003,163.487937 C772.815783,163.283608 773.132008,163.26855 773.336336,163.454303 L778,167.693997 L782.663664,163.454303 Z" id="xiayiye"></path>
        </g>
    </g>
</svg>