<?xml version="1.0" encoding="UTF-8"?>
<svg width="20px" height="19px" viewBox="0 0 20 19" version="1.1" xmlns="http://www.w3.org/2000/svg" xmlns:xlink="http://www.w3.org/1999/xlink">
    <!-- Generator: Sketch 47.1 (45422) - http://www.bohemiancoding.com/sketch -->
    <title>Group</title>
    <desc>Created with Sketch.</desc>
    <defs></defs>
    <g id="个人用户" stroke="none" stroke-width="1" fill="none" fill-rule="evenodd">
        <g id="签署-侧边隐藏-签署" transform="translate(-1513.000000, -156.000000)" fill-rule="nonzero" fill="#000000">
            <g id="Group" transform="translate(1523.000000, 165.500000) scale(-1, 1) translate(-1523.000000, -165.500000) translate(1513.000000, 156.000000)">
                <path d="M1.70710678,9.48528137 L9.83883476,17.6170094 C10.0340969,17.8122715 10.0340969,18.128854 9.83883476,18.3241161 C9.64357262,18.5193783 9.32699013,18.5193783 9.13172798,18.3241161 L0.646446609,9.83883476 C0.451184464,9.64357262 0.451184464,9.32699013 0.646446609,9.13172798 L9.13172798,0.646446609 C9.32699013,0.451184464 9.64357262,0.451184464 9.83883476,0.646446609 C10.0340969,0.841708755 10.0340969,1.15829124 9.83883476,1.35355339 L1.70710678,9.48528137 Z M19.8388348,1.35355339 L11.7071068,9.48528137 L19.8388348,17.6170094 C20.0340969,17.8122715 20.0340969,18.128854 19.8388348,18.3241161 C19.6435726,18.5193783 19.3269901,18.5193783 19.131728,18.3241161 L10.6464466,9.83883476 C10.4511845,9.64357262 10.4511845,9.32699013 10.6464466,9.13172798 L19.131728,0.646446609 C19.3269901,0.451184464 19.6435726,0.451184464 19.8388348,0.646446609 C20.0340969,0.841708755 20.0340969,1.15829124 19.8388348,1.35355339 Z" id="Combined-Shape"></path>
            </g>
        </g>
    </g>
</svg>