<?xml version="1.0" encoding="UTF-8"?>
<svg width="22px" height="22px" viewBox="0 0 22 22" version="1.1" xmlns="http://www.w3.org/2000/svg" xmlns:xlink="http://www.w3.org/1999/xlink">
    <!-- Generator: Sketch 47.1 (45422) - http://www.bohemiancoding.com/sketch -->
    <title>shangyiye</title>
    <desc>Created with Sketch.</desc>
    <defs></defs>
    <g id="个人用户" stroke="none" stroke-width="1" fill="none" fill-rule="evenodd">
        <g id="签署-侧边隐藏-签署" transform="translate(-735.000000, -154.000000)" fill-rule="nonzero" fill="#BFC5D1">
            <path d="M746,175.5 C740.20101,175.5 735.5,170.79899 735.5,165 C735.5,159.20101 740.20101,154.5 746,154.5 C751.79899,154.5 756.5,159.20101 756.5,165 C756.5,170.79899 751.79899,175.5 746,175.5 Z M746,174.5 C751.246705,174.5 755.5,170.246705 755.5,165 C755.5,159.753295 751.246705,155.5 746,155.5 C740.753295,155.5 736.5,159.753295 736.5,165 C736.5,170.246705 740.753295,174.5 746,174.5 Z M750.663664,167.915425 L746,163.67573 L741.336336,167.915425 C741.132008,168.101178 740.815783,168.08612 740.63003,167.881791 C740.444277,167.677462 740.459335,167.361238 740.663664,167.175485 L746,162.32427 L751.336336,167.175485 C751.540665,167.361238 751.555723,167.677462 751.36997,167.881791 C751.184217,168.08612 750.867992,168.101178 750.663664,167.915425 Z" id="shangyiye"></path>
        </g>
    </g>
</svg>